<svg width="15" height="16" viewBox="0 0 15 16" fill="none" xmlns="http://www.w3.org/2000/svg">
<path fill-rule="evenodd" clip-rule="evenodd" d="M8.97518 6.03833H6.03839C5.71014 6.03833 5.40204 5.87726 5.21087 5.60581L1.52308 0.368181C1.04752 -0.307238 0 0.0349971 0 0.865785V15.7119C0 15.871 0.126753 16 0.28318 16H2.19879C2.65718 16 3.02871 15.622 3.02871 15.1558V11.632C4.49106 11.632 5.81771 12.5038 6.41896 13.8598L6.45739 13.9465C6.64519 14.37 7.05948 14.6423 7.51622 14.6423H7.54843C7.96579 14.6423 8.34436 14.3935 8.516 14.0065L8.581 13.8598C9.18224 12.5038 10.5089 11.632 11.9712 11.632V15.1558C11.9712 15.622 12.3428 16 12.8011 16H14.7168C14.8732 16 15 15.871 15 15.7119V0.82804C15 0.00535357 13.9245 -0.326925 13.3948 0.404568L9.79153 5.62142C9.59942 5.88373 9.29676 6.03833 8.97518 6.03833Z" fill="white"/>
</svg>
